<?xml version="1.0" encoding="utf-8"?>
<!-- Generator: Adobe Illustrator 25.2.0, SVG Export Plug-In . SVG Version: 6.00 Build 0)  -->
<svg version="1.1" xmlns="http://www.w3.org/2000/svg" xmlns:xlink="http://www.w3.org/1999/xlink" x="0px" y="0px"
	 viewBox="0 0 1728 1296" style="enable-background:new 0 0 1728 1296;" xml:space="preserve">
<style type="text/css">
	.st0{display:none;}
	.st1{fill:#1C2A4C;}
	.st2{fill:#FFFFFF;}
	.st3{display:inline;}
	.st4{display:inline;fill:none;}
	.st5{font-family:'GloberBold';}
	.st6{font-size:78.1221px;}
	.st7{fill:url(#SVGID_1_);}
	.st8{fill:url(#SVGID_2_);}
	.st9{fill:#FF0000;}
	.st10{fill:url(#SVGID_3_);}
	.st11{fill:#EA2127;}
</style>
<g id="Layer_1">
	<g class="st0">
		<g>
			<path class="st1" d="M664.7,494.5c0.8-8.2-1.6-14.5-6.6-14.5c-2.9,0-4.9,2.5-4.9,5.3c0,3.7,2,7.4,14.8,15.8
				c21.1,13.7,32.6,25,32.6,46.3c0,25.4-19.3,41.4-45.9,41.4c-25.8,0-42.6-14.5-44.3-37.1l32.4-13.9c-1.2,8.6,5.1,16.8,11.3,16.8
				c3.9,0,6.1-1.6,6.1-4.9c0-5.5-8-11.1-16.8-16.6c-20.1-12.7-31.6-24.4-31.6-44.1c0-26,18.4-41.6,44.7-41.6
				c21.9,0,38.9,13.1,40.6,34L664.7,494.5z"/>
			<path class="st1" d="M699.5,449.4H743l9.8,72.7h1.2l10.2-72.7h41.4l-31.1,137.3h-43.8L699.5,449.4z"/>
			<path class="st1" d="M887,483.8h-33.2v17.6h27V533h-27v19.3H887v34.4h-73.8V449.4H887V483.8z"/>
			<path class="st1" d="M936.8,449.2l18.2,54.5h0.8c0-1.6-0.2-9-0.2-15.2v-39.3h38.5v137.3h-36.1l-19.9-53.3h-0.8
				c0,1.6,0.2,9,0.2,15.2v38.1h-39.3V449.2H936.8z"/>
			<path class="st1" d="M1055.9,494.5c0.8-8.2-1.6-14.5-6.6-14.5c-2.9,0-4.9,2.5-4.9,5.3c0,3.7,2,7.4,14.7,15.8
				c21.1,13.7,32.6,25,32.6,46.3c0,25.4-19.3,41.4-45.9,41.4c-25.8,0-42.6-14.5-44.3-37.1l32.4-13.9c-1.2,8.6,5.1,16.8,11.3,16.8
				c3.9,0,6.1-1.6,6.1-4.9c0-5.5-8-11.1-16.8-16.6c-20.1-12.7-31.5-24.4-31.5-44.1c0-26,18.4-41.6,44.7-41.6
				c21.9,0,38.9,13.1,40.6,34L1055.9,494.5z"/>
			<path class="st1" d="M1166.7,586.7l-18.8-51.8l-5.9,10.7v41.2h-41.8V449.4h41.8v38.5h1.2l22.3-38.5h46.7l-34,53.1l34.4,84.2
				H1166.7z"/>
			<path class="st1" d="M670.4,620.1h41.8v137.3h-41.8v-52.9h-13.5v52.9h-41.8V620.1h41.8v49.2h13.5V620.1z"/>
			<path class="st1" d="M721.9,688.8c0-46.5,16.4-70.7,50.4-70.7s50.4,24.2,50.4,70.7c0,46.5-16.4,70.7-50.4,70.7
				S721.9,735.3,721.9,688.8z M779.2,688.8c0-27.2-1.4-36.9-7-36.9c-5.1,0-7,9.6-7,36.9c0,27.3,1.8,36.9,7,36.9
				S779.2,716,779.2,688.8z"/>
			<path class="st1" d="M881.5,618.1c25,0,39.5,12.3,42.4,42.6l-36.7,13.9c0.8-16.4-1.2-22.1-5.3-22.1c-5.7,0-7.8,8.2-7.8,36.3
				c0,28.1,2.1,36.3,7.8,36.3c4.1,0,5.9-5.7,5.3-22.1l36.7,13.9c-2.9,30.3-17.4,42.6-42.4,42.6c-34,0-50.4-24.2-50.4-70.7
				C831.1,642.3,847.5,618.1,881.5,618.1z"/>
			<path class="st1" d="M998.5,757.4l-18.8-51.8l-5.9,10.7v41.2h-41.8V620.1h41.8v38.5h1.2l22.3-38.5h46.7l-34,53.1l34.4,84.2H998.5
				z"/>
			<path class="st1" d="M1125.3,654.6h-33.2v17.6h27v31.6h-27V723h33.2v34.4h-73.8V620.1h73.8V654.6z"/>
			<path class="st1" d="M1192.5,620.1h41.8l-29.9,94.9v42.4h-41.8V715l-30.7-94.9h43l8,40.4h1.2L1192.5,620.1z"/>
			<path class="st1" d="M1219.6,737.3c0-12.1,9.8-22.1,21.7-22.1c11.9,0,21.7,10,21.7,22.1c0,12.1-9.8,22.1-21.7,22.1
				C1229.4,759.5,1219.6,749.4,1219.6,737.3z"/>
			<path class="st1" d="M1345,654.6h-23.6v102.9h-41.8V654.6H1256v-34.4h88.9V654.6z"/>
			<path class="st1" d="M1350.3,620.1h43.4l9.8,72.7h1.2l10.2-72.7h41.4l-31.1,137.3h-43.8L1350.3,620.1z"/>
		</g>
		<path class="st1" d="M615.1,922.3v-115h1008.2v115H615.1z"/>
		<g>
			<path class="st2" d="M680.1,852.7c0.2-6.7-2.6-10.8-7.4-10.8c-4.5,0-7.3,3-7.3,8c0,4.9,3.7,7.9,9.1,11.8
				c7.5,5.4,11.8,9.8,11.8,17.2c0,8.4-5.4,14.2-13.7,14.2c-7.6,0-13.2-5.7-14.6-15.1l5.7-3.5c-0.1,8.1,3.3,13.1,8.8,13.1
				c4.6,0,7.5-3,7.5-8c0-5.2-3.8-8.8-9.3-12.7c-7.4-5.2-11.5-9.7-11.5-16.8c0-7.9,5.7-13.5,13.5-13.5c7.2,0,12.2,5.1,13.1,13.4
				L680.1,852.7z"/>
			<path class="st2" d="M693.6,837.4h6.6l9.7,44.3h0.5l9.6-44.3h6.5l-12.9,54.9h-7L693.6,837.4z"/>
			<path class="st2" d="M759.5,843h-16.6v18.2h14.3v5.6h-14.3v19.7h16.6v5.7h-23.1v-54.9h23.1V843z"/>
			<path class="st2" d="M777,837.3l15.8,39h0.5c-0.2-3.4-0.2-5.6-0.2-7.7v-31.3h6v54.9h-5.6l-17.1-41.4h-0.5
				c0.2,3.4,0.2,5.6,0.2,7.7v33.7h-6v-54.9H777z"/>
			<path class="st2" d="M831.1,852.7c0.2-6.7-2.6-10.8-7.4-10.8c-4.5,0-7.3,3-7.3,8c0,4.9,3.7,7.9,9.1,11.8
				c7.5,5.4,11.8,9.8,11.8,17.2c0,8.4-5.4,14.2-13.7,14.2c-7.6,0-13.2-5.7-14.6-15.1l5.7-3.5c-0.1,8.1,3.3,13.1,8.8,13.1
				c4.6,0,7.5-3,7.5-8c0-5.2-3.8-8.8-9.3-12.7c-7.4-5.2-11.5-9.7-11.5-16.8c0-7.9,5.7-13.5,13.5-13.5c7.2,0,12.2,5.1,13.1,13.4
				L831.1,852.7z"/>
			<path class="st2" d="M873.8,892.3l-11.7-28.5l-7.8,12.2v16.3h-6.5v-54.9h6.5V865h0.3l17.6-27.6h7.1l-12.9,20.4l14.3,34.5H873.8z"
				/>
			<path class="st2" d="M915.6,892.3l-3.4-15.6h-13.8l-3.4,15.6h-6.2l12.4-54.9h8.4l12.4,54.9H915.6z M899.5,871.5h11.6l-5.7-26.4
				h-0.3L899.5,871.5z"/>
			<path class="st2" d="M951.6,837.4h6.5v54.9h-6.5V837.4z"/>
			<path class="st2" d="M990,852.7c0.2-6.7-2.6-10.8-7.4-10.8c-4.5,0-7.3,3-7.3,8c0,4.9,3.7,7.9,9.1,11.8
				c7.5,5.4,11.8,9.8,11.8,17.2c0,8.4-5.4,14.2-13.7,14.2c-7.6,0-13.2-5.7-14.6-15.1l5.7-3.5c-0.1,8.1,3.3,13.1,8.8,13.1
				c4.6,0,7.5-3,7.5-8c0-5.2-3.8-8.8-9.3-12.7c-7.4-5.2-11.5-9.7-11.5-16.8c0-7.9,5.7-13.5,13.5-13.5c7.2,0,12.2,5.1,13.1,13.4
				L990,852.7z"/>
			<path class="st2" d="M1030.1,837.4h6.5v54.9h-6.5v-25.1h-16.9v25.1h-6.5v-54.9h6.5v24.2h16.9V837.4z"/>
			<path class="st2" d="M1048,864.8c0-18.7,5.5-28.3,16.1-28.3c10.6,0,16.1,9.6,16.1,28.3c0,18.7-5.5,28.3-16.1,28.3
				C1053.5,893.1,1048,883.5,1048,864.8z M1073.6,864.8c0-15.8-2.9-22.6-9.5-22.6c-6.6,0-9.5,6.8-9.5,22.6c0,15.8,2.9,22.6,9.5,22.6
				C1070.8,887.4,1073.6,880.6,1073.6,864.8z"/>
			<path class="st2" d="M1105.5,836.6c6.9,0,11.5,4.5,13.4,13.2l-5.7,3.6c-0.3-6.7-3.4-11.1-7.8-11.1c-5.7,0-8.8,9.3-8.8,22.6
				c0,13.4,3.1,22.6,8.8,22.6c4.4,0,7.5-4.4,7.8-11.1l5.7,3.7c-2,8.7-6.5,13.1-13.4,13.1c-10.2,0-15.5-9.6-15.5-28.3
				C1090,846.1,1095.3,836.6,1105.5,836.6z"/>
			<path class="st2" d="M1155.2,892.3l-11.7-28.5l-7.8,12.2v16.3h-6.5v-54.9h6.5V865h0.3l17.6-27.6h7.1l-12.9,20.4l14.3,34.5H1155.2
				z"/>
			<path class="st2" d="M1194.9,843h-16.6v18.2h14.3v5.6h-14.3v19.7h16.6v5.7h-23.1v-54.9h23.1V843z"/>
			<path class="st2" d="M1229.7,837.4h6.4l-12.8,33.4v21.5h-6.5v-21.5l-12.9-33.4h6.9l9.2,26.1h0.5L1229.7,837.4z"/>
			<path class="st2" d="M1269.1,843h-16.6v19.5h13.4v5.6h-13.4v24.1h-6.5v-54.9h23.1V843z"/>
			<path class="st2" d="M1276.9,864.8c0-18.7,5.5-28.3,16.1-28.3s16.1,9.6,16.1,28.3c0,18.7-5.5,28.3-16.1,28.3
				S1276.9,883.5,1276.9,864.8z M1302.6,864.8c0-15.8-2.9-22.6-9.5-22.6c-6.6,0-9.5,6.8-9.5,22.6c0,15.8,2.9,22.6,9.5,22.6
				C1299.7,887.4,1302.6,880.6,1302.6,864.8z M1291.7,830.7c0,2.5-1.6,4.1-3.9,4.1c-2.4,0-4-1.6-4-4.1c0-2.5,1.6-4.1,4-4.1
				C1290.2,826.6,1291.7,828.2,1291.7,830.7z M1302.2,830.7c0,2.5-1.6,4.1-3.9,4.1c-2.4,0-4-1.6-4-4.1c0-2.5,1.6-4.1,4-4.1
				C1300.7,826.6,1302.2,828.2,1302.2,830.7z"/>
			<path class="st2" d="M1348.8,885c0,5.2,0.6,6.1,1.3,6.7v0.5h-6.6c-0.7-0.7-1.2-1.7-1.2-4.5v-9.4c0-5.9-1.2-9.3-8.3-9.3h-7v23.3
				h-6.5v-54.9h12.4c10.3,0,15.7,4.8,15.7,15.1c0,7.7-3.9,12.4-10.2,13.3v0.3c6.9,0.4,10.3,4.4,10.3,10.6V885z M1332.1,863.4
				c7.3,0,10-2.9,10-10.3c0-7.2-3.4-10.3-10.2-10.3h-4.9v20.6H1332.1z"/>
			<path class="st2" d="M1377.6,864.5c6.4,1,10.3,5.7,10.3,13.4c0,9.3-5.1,14.4-14.7,14.4h-12.4v-54.9h10.7c9.8,0,15.3,5,15.3,14.2
				c0,6.8-4.2,11.6-9.2,12.6V864.5z M1367.2,842.8v19.1h4c6.7,0,9.3-2.6,9.3-9.4c0-6.7-2.7-9.7-9.4-9.7H1367.2z M1372.2,886.9
				c7,0,9.5-3.7,9.5-9.7c0-7-3.4-9.8-10.3-9.8h-4.2v19.6H1372.2z"/>
			<path class="st2" d="M1420.4,837.4h6.5v38c0,11.5-5,17.7-14.3,17.7c-9.3,0-14.3-6.2-14.3-17.7v-38h6.5v37.3
				c0,8.7,2,12.9,7.9,12.9c5.9,0,7.9-4.2,7.9-12.9V837.4z"/>
			<path class="st2" d="M1446.4,837.3l15.8,39h0.5c-0.2-3.4-0.2-5.6-0.2-7.7v-31.3h6v54.9h-5.6l-17.1-41.4h-0.5
				c0.2,3.4,0.2,5.6,0.2,7.7v33.7h-6v-54.9H1446.4z"/>
			<path class="st2" d="M1481.5,892.3v-54.9h10.3c13.1,0,19.2,8.9,19.2,27.4c0,18.5-6.1,27.4-19.2,27.4H1481.5z M1487.9,886.9h3.8
				c9.2,0,13.1-6.6,13.1-22c0-15.4-3.9-22-13.1-22h-3.8V886.9z"/>
			<path class="st2" d="M1545.5,843h-16.6v18.2h14.3v5.6h-14.3v19.7h16.6v5.7h-23.1v-54.9h23.1V843z"/>
			<path class="st2" d="M1584.2,843h-11.6v49.2h-6.5V843h-11.6v-5.6h29.7V843z"/>
		</g>
	</g>
	<g id="Layer_2" class="st0">
		<g class="st3">
			<path d="M601.4,628.4c0,4.2,3.3,7.7,7.2,7.7h21c4.2,0,7.5-3.5,7.5-7.7v-12.1c0-7.9-2.3-10-10.7-10.5l-32.2-1.6
				c-21-1.2-28.7-11.9-28.7-28v-43.9c0-15.4,7.2-27.8,28.7-27.8h54c21.5,0,28.7,12.4,28.7,27.8v9.3c0,4.9-1.2,6.3-6.1,7.2l-27.6,5.4
				c-4.7,0.9-6.1-0.2-6.1-4.9v-1.9c0-4.2-3.5-7.7-7.5-7.7h-16.1c-4.2,0-7.5,3.5-7.5,7.7v8.9c0,8.4,3,10.5,11,11l32.2,1.6
				c21.3,1.2,29,12.1,29,28.3v46.5c0,15.4-7.2,27.8-29,27.8h-59.1c-21.5,0-28.7-12.4-28.7-27.8v-10.7c0-4.9,1.2-6.3,6.1-7.2
				l27.8-5.4c4.7-0.9,6.1,0.2,6.1,4.9V628.4z"/>
			<path d="M769.4,596.2h-0.5l-13.1,69.1c-0.9,4.9-2.3,6.1-7.2,6.1h-22.9c-4.9,0-6.3-1.2-7.2-6.1l-29-154.9
				c-0.9-4.7,0.2-6.1,4.9-6.1h30.1c4.9,0,6.3,1.2,7,6.1l9.3,69.1h0.5l10.7-69.1c0.7-4.9,2.1-6.1,7-6.1h21.7c4.9,0,6.3,1.2,7,6.1
				l10.7,69.1h0.5l9.6-69.1c0.7-4.9,2.1-6.1,7-6.1h28.3c4.7,0,5.8,1.4,4.9,6.1l-29,154.9c-0.9,4.9-2.3,6.1-7.2,6.1h-22.9
				c-4.9,0-6.3-1.2-7.2-6.1L769.4,596.2z"/>
			<path d="M900.2,504.4c4.7,0,6.1,1.4,6.1,6.1v154.9c0,4.7-1.4,6.1-6.1,6.1h-28.5c-4.7,0-6.1-1.4-6.1-6.1V510.5
				c0-4.7,1.4-6.1,6.1-6.1H900.2z"/>
			<path d="M967.7,628.4c0,4.2,3.3,7.7,7.2,7.7h21c4.2,0,7.5-3.5,7.5-7.7v-12.1c0-7.9-2.3-10-10.7-10.5l-32.2-1.6
				c-21-1.2-28.7-11.9-28.7-28v-43.9c0-15.4,7.2-27.8,28.7-27.8h54c21.5,0,28.7,12.4,28.7,27.8v9.3c0,4.9-1.2,6.3-6.1,7.2l-27.6,5.4
				c-4.7,0.9-6.1-0.2-6.1-4.9v-1.9c0-4.2-3.5-7.7-7.5-7.7h-16.1c-4.2,0-7.5,3.5-7.5,7.7v8.9c0,8.4,3,10.5,11,11l32.2,1.6
				c21.3,1.2,29,12.1,29,28.3v46.5c0,15.4-7.2,27.8-29,27.8h-59.1c-21.5,0-28.7-12.4-28.7-27.8v-10.7c0-4.9,1.2-6.3,6.1-7.2
				l27.8-5.4c4.7-0.9,6.1,0.2,6.1,4.9V628.4z"/>
			<path d="M1102.2,628.4c0,4.2,3.3,7.7,7.2,7.7h21c4.2,0,7.5-3.5,7.5-7.7v-12.1c0-7.9-2.3-10-10.7-10.5l-32.2-1.6
				c-21-1.2-28.7-11.9-28.7-28v-43.9c0-15.4,7.2-27.8,28.7-27.8h54c21.5,0,28.7,12.4,28.7,27.8v9.3c0,4.9-1.2,6.3-6.1,7.2l-27.6,5.4
				c-4.7,0.9-6.1-0.2-6.1-4.9v-1.9c0-4.2-3.5-7.7-7.5-7.7h-16.1c-4.2,0-7.5,3.5-7.5,7.7v8.9c0,8.4,3,10.5,11,11l32.2,1.6
				c21.3,1.2,29,12.1,29,28.3v46.5c0,15.4-7.2,27.8-29,27.8H1091c-21.5,0-28.7-12.4-28.7-27.8v-10.7c0-4.9,1.2-6.3,6.1-7.2l27.8-5.4
				c4.7-0.9,6.1,0.2,6.1,4.9V628.4z"/>
			<path d="M608.2,765.4h39.9v-58.6c0-4.7,1.4-6.1,6.1-6.1h28.5c4.7,0,6.1,1.4,6.1,6.1v154.9c0,4.7-1.4,6.1-6.1,6.1h-28.5
				c-4.7,0-6.1-1.4-6.1-6.1v-61.4h-39.9v61.4c0,4.7-1.4,6.1-6.1,6.1h-28.5c-4.7,0-6.1-1.4-6.1-6.1V706.8c0-4.7,1.4-6.1,6.1-6.1h28.5
				c4.7,0,6.1,1.4,6.1,6.1V765.4z"/>
			<path d="M833.1,728.5v111.4c0,15.4-7.2,27.8-28.7,27.8h-66.6c-21.7,0-29-12.4-29-27.8V728.5c0-15.4,7.2-27.8,29-27.8h66.6
				C825.9,700.7,833.1,713.1,833.1,728.5z M792.5,832.4V736h-42.7v96.5H792.5z"/>
			<path d="M854.6,839.9V728.5c0-15.4,7.2-27.8,29-27.8h56.8c21.5,0,28.7,12.4,28.7,27.8v18c0,4.9-1.2,6.3-6.1,7.2l-27.6,5.1
				c-4.7,0.9-6.1-0.2-6.1-4.9v-18h-33.9v96.5h33.9v-22.9c0-4.7,1.4-5.8,6.1-4.9l27.6,5.1c4.9,0.9,6.1,2.3,6.1,7.2v22.9
				c0,15.4-7.2,27.8-28.7,27.8h-56.8C861.9,867.7,854.6,855.3,854.6,839.9z"/>
			<path d="M1032.2,798.1h-0.2v63.5c0,4.7-1.4,6.1-6.1,6.1h-28.5c-4.7,0-6.1-1.4-6.1-6.1V706.8c0-4.7,1.4-6.1,6.1-6.1h28.5
				c4.7,0,6.1,1.4,6.1,6.1v58.6h0.2l36-59.6c2.3-4.2,4.2-5.1,9.1-5.1h33.9c4.4,0,5.1,1.4,2.8,5.1l-45.8,73.1l54.4,83.6
				c2.3,3.7,1.6,5.1-2.8,5.1h-37.8c-4.9,0-6.8-0.9-9.3-5.1L1032.2,798.1z"/>
			<path d="M1233.5,861.6c0,4.7-1.4,6.1-6.1,6.1h-85.7c-4.7,0-6.1-1.4-6.1-6.1V706.8c0-4.7,1.4-6.1,6.1-6.1h82.5
				c4.7,0,6.1,1.4,6.1,6.1v23.1c0,4.7-1.4,6.1-6.1,6.1h-47.9v29.4h31.8c4.7,0,6.1,1.4,6.1,6.1v23.8c0,4.7-1.4,6.1-6.1,6.1h-31.8
				v31.1h51.2c4.7,0,6.1,1.4,6.1,6.1V861.6z"/>
			<path d="M1288.2,867.7c-4.7,0-6.1-1.4-6.1-6.1v-65.9l-41.8-89.5c-1.9-4.2-0.9-5.6,3.5-5.6h33.2c4.9,0,6.5,1.2,8.4,5.6l19.2,46
				l19.4-46c1.9-4.4,3.5-5.6,8.4-5.6h31.3c4.4,0,5.4,1.4,3.5,5.6l-41.8,89.5v65.9c0,4.7-1.4,6.1-6.1,6.1H1288.2z"/>
			<path d="M1360.3,859.5v-29.4c0-4.7,2.1-8.2,6.8-8.2h30.6c4.4,0,6.8,3.5,6.8,8.2v29.4c0,4.7-2.3,8.2-6.8,8.2h-30.6
				C1362.4,867.7,1360.3,864.2,1360.3,859.5z"/>
			<path d="M1412.7,736c-4.7,0-6.1-1.4-6.1-6.1v-23.1c0-4.7,1.4-6.1,6.1-6.1h88.8c4.7,0,6.1,1.4,6.1,6.1v23.1c0,4.7-1.4,6.1-6.1,6.1
				h-24.1v125.7c0,4.7-1.4,6.1-6.1,6.1h-28.5c-4.7,0-6.1-1.4-6.1-6.1V736H1412.7z"/>
			<path d="M1600,706.5c1.2-4.7,2.6-5.8,7.5-5.8h28.3c4.7,0,5.6,1.4,4.4,5.8l-43.4,155.3c-1.4,4.7-2.8,5.8-7.7,5.8h-25.2
				c-4.9,0-6.3-1.2-7.7-5.8l-45.5-155.3c-1.2-4.4-0.2-5.8,4.4-5.8h30.4c4.9,0,6.3,1.2,7.7,5.8l24.5,86.9h0.2L1600,706.5z"/>
		</g>
		<rect x="1828.5" y="571.6" class="st4" width="0" height="0"/>
		<rect x="1073.7" y="1029.8" class="st4" width="4.1" height="2.1"/>
		<rect x="1046.8" y="172.5" class="st4" width="179.7" height="95"/>
	</g>
</g>
<g id="Layer_3">
	<g>
		<rect x="572.7" y="848.3" width="1092" height="108"/>
		<text transform="matrix(1 0 0 1 593.248 929.1582)" class="st2 st5 st6">Danmarks ishockey union</text>
		<g>
			
				<linearGradient id="SVGID_1_" gradientUnits="userSpaceOnUse" x1="1773.6113" y1="1273.0808" x2="1994.991" y2="1265.7267" gradientTransform="matrix(0.7071 -0.7071 0.7071 0.7071 -2064.7732 1337.5496)">
				<stop  offset="0.2596" style="stop-color:#FF0000"/>
				<stop  offset="0.3859" style="stop-color:#ED0C0C"/>
				<stop  offset="0.6387" style="stop-color:#BD2B2B"/>
				<stop  offset="0.8744" style="stop-color:#8C4C4C"/>
			</linearGradient>
			<path class="st7" d="M164.9,745.8l156.7,156.7l-140,140c-9.2,9.2-24.1,9.2-33.3,0L24.9,919.1c-9.2-9.2-9.2-24.1,0-33.3
				L164.9,745.8z"/>
			<linearGradient id="SVGID_2_" gradientUnits="userSpaceOnUse" x1="91.0294" y1="987.5" x2="240.3139" y2="815.3072">
				<stop  offset="0" style="stop-color:#FFFFFF"/>
				<stop  offset="0.3709" style="stop-color:#FDFDFD"/>
				<stop  offset="0.5143" style="stop-color:#F7F6F6"/>
				<stop  offset="0.6182" style="stop-color:#EDEAEA"/>
				<stop  offset="0.7032" style="stop-color:#DDD9D9"/>
				<stop  offset="0.7765" style="stop-color:#CAC2C2"/>
				<stop  offset="0.8419" style="stop-color:#B1A7A7"/>
				<stop  offset="0.9012" style="stop-color:#948686"/>
				<stop  offset="0.9542" style="stop-color:#746161"/>
				<stop  offset="1" style="stop-color:#523A3A"/>
			</linearGradient>
			<path class="st8" d="M228.3,785.1l46,34.6c0,0-37.3,29.7-51.1,42.3c-13.8,12.7-30.3,31.2-30.3,31.2s16.1,20,32.7,31.1
				c14.4,9.6,46.6,28.1,46.6,28.1l-41.7,42c0,0-24-15.6-38-25c-8.6-5.8-27.7-29.5-27.7-29.5s-6.3,20.8-14.3,30.6
				c-16,19.7-38,36.5-38,36.5l-40.9-40.5c0,0,21.8-17.5,28.6-26.1c7.2-9,22.2-37.8,22.2-37.8s-14.8-17.4-30.3-28.2
				c-15.6-10.9-39.6-16.5-39.6-16.5l41.2-41.2c0,0,18.4,8.3,34.1,19c14.3,9.8,26.5,24.4,26.5,24.4s18.9-25.2,28.2-35.6"/>
			<path class="st9" d="M471,755.1L322.6,903.5L25.9,606.8c-9.2-9.2-9.2-24.1,0-33.3l123.4-123.4c9.2-9.2,24.1-9.2,33.3,0L471,738.5
				C475.6,743.1,475.6,750.5,471,755.1z"/>
			<linearGradient id="SVGID_3_" gradientUnits="userSpaceOnUse" x1="225.6808" y1="810.6808" x2="225.6808" y2="810.6808">
				<stop  offset="0.2596" style="stop-color:#FF0000"/>
				<stop  offset="0.417" style="stop-color:#ED0B0B"/>
				<stop  offset="0.7324" style="stop-color:#BD2929"/>
				<stop  offset="0.8744" style="stop-color:#A63737"/>
			</linearGradient>
			<path class="st10" d="M225.7,810.7"/>
		</g>
		<g>
			<path d="M622.6,536.9c39.9,0,59.5,18.2,59.5,64.8s-19.6,64.8-59.5,64.8h-48.6V536.9H622.6z M622.6,637.4
				c13.9,0,18.7-6.8,18.7-35.8c0-29.1-4.9-35.8-18.7-35.8h-9.4v71.6H622.6z"/>
			<path d="M741,536.9c17.8,0,25.7,1.6,25.7,1.6l37.4,126.3c0,0-6.8,1.6-19.8,1.6c-12.1,0-18.9-1.6-18.9-1.6l-6.1-21.6h-38
				l-6.1,21.6c0,0-7.2,1.6-18.9,1.6s-18.7-1.6-18.7-1.6l37.6-126.3C715.3,538.5,723.9,536.9,741,536.9z M739.9,569.3
				c0,0-0.4,10.8-3.8,23l-7.4,25.2H752l-7.2-25.2c-3.4-12.2-4.1-23-4.1-23H739.9z"/>
			<path d="M852.2,611.5c-6.7-20.3-9-37.2-9-37.2h-1.1c0,0,2.7,16.2,2.7,37.2v53.2c0,0-5.9,1.6-16.9,1.6c-10.8,0-15.8-1.6-15.8-1.6
				V538.5c0,0,8.5-1.6,26.4-1.6c18,0,25.5,1.6,25.5,1.6l16.5,52.5c6.1,19.4,9.5,41.6,9.5,41.6h0.9c0,0-2-21.2-2-41.9v-52.2
				c0,0,7.4-1.6,16.7-1.6c10.3,0,16,1.6,16,1.6v126.3c0,0-7.9,1.6-25.9,1.6c-16.5,0-26.1-1.6-26.1-1.6L852.2,611.5z"/>
			<path d="M987.2,534.2c25.2,0,40.7,7.2,40.7,7.2c0.4,10.3-3.1,20.5-9,27.5c0,0-12.2-3.1-24.8-3.1c-11.9,0-17.6,2.7-17.6,7.4
				c0,6.8,13.9,8.1,28.1,13.1c14.9,5.4,30.2,14.9,30.2,39.6c0,28.2-16.5,43.2-52.7,43.2c-29.5,0-48.2-10.4-48.2-10.4
				c0-10.3,3.8-21.9,9.2-28.4c0,0,14.2,5.4,34.9,5.4c9.9,0,15.3-2.5,15.3-7c0-5.6-8.3-7.7-18.5-10.8c-16.9-4.9-39-12.2-39-41.2
				C935.6,551.6,951.1,534.2,987.2,534.2z"/>
			<path d="M1109.4,538.5c5-0.9,10.1-1.6,19.8-1.6c10.1,0,15.5,0.7,21,1.6l-28.6,58.1l33.8,68.2c0,0-9.9,1.6-22.5,1.6
				c-13.7,0-21-1.6-21-1.6l-25.2-52h-4.7v52c0,0-6.5,1.6-19.6,1.6c-12.4,0-19.6-1.6-19.6-1.6V538.5c0,0,7.6-1.6,19.8-1.6
				c12.2,0,19.4,1.6,19.4,1.6v46.9h4.7L1109.4,538.5z"/>
			<path d="M574.1,692c0,0,8.3-1.6,19.4-1.6c11.3,0,19.8,1.6,19.8,1.6v126.3c0,0-8.6,1.6-19.6,1.6c-11.9,0-19.6-1.6-19.6-1.6V692z"
				/>
			<path d="M678.8,687.7c25.2,0,40.7,7.2,40.7,7.2c0.4,10.3-3.1,20.5-9,27.5c0,0-12.2-3.1-24.8-3.1c-11.9,0-17.6,2.7-17.6,7.4
				c0,6.8,13.9,8.1,28.1,13.1c14.9,5.4,30.2,14.9,30.2,39.6c0,28.2-16.5,43.2-52.7,43.2c-29.5,0-48.2-10.4-48.2-10.4
				c0-10.3,3.8-21.9,9.2-28.4c0,0,14.2,5.4,34.9,5.4c9.9,0,15.3-2.5,15.3-7c0-5.6-8.3-7.7-18.5-10.8c-16.9-4.9-39-12.2-39-41.2
				C627.1,705.2,642.6,687.7,678.8,687.7z"/>
			<path d="M802.3,692c0,0,8.5-1.6,19.6-1.6s19.6,1.6,19.6,1.6v126.3c0,0-8.3,1.6-19.4,1.6c-12.1,0-19.8-1.6-19.8-1.6v-49.6h-27.7
				v49.6c0,0-8.6,1.6-19.6,1.6c-11.9,0-19.6-1.6-19.6-1.6V692c0,0,8.3-1.6,19.4-1.6c11.3,0,19.8,1.6,19.8,1.6v46.4h27.7V692z"/>
			<path d="M907.2,687.7c36.2,0,59,20.3,59,67.5c0,47.1-23,67.5-59,67.5c-36.2,0-59-20.3-59-67.5
				C848.2,708.6,871.1,687.7,907.2,687.7z M907.2,716.7c-11.2,0-16.7,7-16.7,38.5c0,31.3,5.6,38.5,16.7,38.5
				c11.5,0,16.9-7.2,16.9-38.5C924.1,723.7,918.7,716.7,907.2,716.7z"/>
			<path d="M1031.7,687.7c24.3,0,36.5,8.1,36.5,8.1c0,9.7-3.4,18.7-11,25c0,0-8.8-3.4-19.4-3.4c-17.3,0-24.8,9.2-24.8,38
				s7.6,37.6,24.8,37.6c11,0,20.7-4,20.7-4c7.4,5.8,11.7,15.6,11.5,25.5c0,0-11.5,8.1-38.3,8.1c-38.9,0-60.8-23.6-60.8-67.5
				C970.9,711.3,992.8,687.7,1031.7,687.7z"/>
			<path d="M1146.4,692c5-0.9,10.1-1.6,19.8-1.6c10.1,0,15.5,0.7,21,1.6l-28.6,58.1l33.8,68.2c0,0-9.9,1.6-22.5,1.6
				c-13.7,0-21-1.6-21-1.6l-25.2-52h-4.7v52c0,0-6.5,1.6-19.6,1.6c-12.4,0-19.6-1.6-19.6-1.6V692c0,0,7.6-1.6,19.8-1.6
				c12.2,0,19.4,1.6,19.4,1.6V739h4.7L1146.4,692z"/>
			<path d="M1285.5,690.4c0.9,2.7,1.8,7.9,1.8,13.7c0,6.1-0.7,11.7-1.8,14.8h-47.7v21.8h38.7c0.9,3.2,1.8,7,1.8,13.7
				c0,6.8-0.7,10.6-1.8,14h-38.7v23.2h49.5c1.1,3.2,1.8,8.5,1.8,14c0,5.8-0.5,11-1.8,14.4h-88.7V690.4H1285.5z"/>
			<path d="M1393.8,690.4c12.8,0,20.5,1.6,20.5,1.6l-42.3,81.8v44.4c0,0-6.8,1.6-19.6,1.6c-13.7,0-19.6-1.6-19.6-1.6v-45l-41.2-81.3
				c0,0,7.9-1.6,22.5-1.6c12.4,0,20.5,1.6,20.5,1.6l19.2,39.6l19.6-39.6C1373.4,692,1381.9,690.4,1393.8,690.4z"/>
			<path d="M1443.2,818.5c0,0-6.7,1.4-18.5,1.4c-11.9,0-18.5-1.4-18.5-1.4v-34.9c0,0,6.5-1.4,18.5-1.4c11.9,0,18.5,1.4,18.5,1.4
				V818.5z"/>
			<path d="M1543.6,690.4c0,0,1.8,6.5,1.8,16c0,9.2-1.8,16-1.8,16h-30v95.9c0,0-8.6,1.6-19.6,1.6c-11.9,0-19.6-1.6-19.6-1.6v-95.9
				h-30.9c0,0-1.8-6.5-1.8-15.6c0-10.1,1.8-16.4,1.8-16.4H1543.6z"/>
			<path d="M1602.8,753.6c5.8,21.4,6.8,34,6.8,34h0.7c0,0,1.6-12.6,7.6-34.2l16.7-61.2c0,0,5.6-1.8,18.3-1.8
				c12.6,0,19.2,1.8,19.2,1.8l-36,126.1c0,0-9.9,1.6-26.8,1.6c-17.1,0-27-1.6-27-1.6l-35.8-125.7c0,0,8.8-2.2,20.9-2.2
				c11.3,0,18.5,1.8,18.5,1.8L1602.8,753.6z"/>
		</g>
		<rect x="572.7" y="848.3" class="st11" width="1092" height="108"/>
		<g>
			<path class="st2" d="M617.2,881.6c10.7,0,17.4,5.9,17.4,21.1s-6.7,21.1-17.4,21.1h-13.8v-42.2H617.2z M616.7,917.6
				c5.7,0,9.8-2.5,9.8-14.9c0-12.4-4.2-14.9-9.8-14.9h-5.7v29.8H616.7z"/>
			<path class="st2" d="M667.6,881.6c2.9,0,4.6,0.5,4.6,0.5l14,41.2c0,0-1.3,0.5-4.1,0.5c-2.5,0-3.6-0.5-3.6-0.5l-3.2-9.4h-16
				l-3.2,9.4c0,0-1.3,0.5-3.6,0.5c-2.2,0-3.5-0.5-3.5-0.5l14-41.2C663,882.1,664.9,881.6,667.6,881.6z M667.2,889.4
				c0,0-0.6,3-1.8,6.5l-4.1,11.9h11.9l-4-11.9c-1.2-3.6-1.8-6.5-1.8-6.5H667.2z"/>
			<path class="st2" d="M713.8,899.7c-2.2-4.1-3.8-8.6-3.8-8.6h-0.2c0,0,0.5,4.6,0.5,10.7v21.5c0,0-1.1,0.5-3.5,0.5
				c-2.3,0-3.4-0.5-3.4-0.5v-41.2c0,0,1.6-0.5,4.5-0.5c3,0,4.5,0.5,4.5,0.5l12.1,23.4c2.3,4.2,3.9,8.8,3.9,8.8h0.2
				c0,0-0.5-4.9-0.5-10.9v-21.3c0,0,1.1-0.5,3.5-0.5c2.5,0,3.4,0.5,3.4,0.5v41.2c0,0-1.4,0.5-4.4,0.5c-2.9,0-4.6-0.5-4.6-0.5
				L713.8,899.7z"/>
			<path class="st2" d="M790.3,881.6c2.9,0,4.9,0.5,4.9,0.5v41.2c0,0-1.3,0.5-3.7,0.5s-3.8-0.5-3.8-0.5v-12.8
				c0-6.4-0.2-14.5,0.4-19.4h-0.4c-1,3.7-4.1,9.8-6.4,14.8l-4.1,8.6c0,0-0.9,0.3-2.2,0.3c-1.3,0-1.9-0.3-1.9-0.3
				c-1.3-2.8-2.8-5.5-4.1-8.3c-2.5-5.1-5.7-11.4-6.6-15.1h-0.4c0.9,4.1,0.7,11.7,0.7,17.9v14.3c0,0-1.2,0.5-3.5,0.5
				c-2.1,0-3.3-0.5-3.3-0.5v-41.2c0,0,1.8-0.5,4.5-0.5c2.2,0,4.5,0.5,4.5,0.5l5.3,10.7c1.9,4,4.1,8.4,5,11.5h0.3
				c0.5-1.7,1.2-3.8,2.3-6.1c2.6-5.3,5.2-10.7,7.6-16.1C787.1,881.7,789,881.6,790.3,881.6z"/>
			<path class="st2" d="M831,881.6c2.9,0,4.6,0.5,4.6,0.5l14,41.2c0,0-1.3,0.5-4.1,0.5c-2.5,0-3.6-0.5-3.6-0.5l-3.2-9.4h-16
				l-3.2,9.4c0,0-1.3,0.5-3.6,0.5c-2.2,0-3.5-0.5-3.5-0.5l14-41.2C826.4,882.1,828.3,881.6,831,881.6z M830.6,889.4
				c0,0-0.6,3-1.8,6.5l-4.1,11.9h11.9l-4-11.9c-1.2-3.6-1.8-6.5-1.8-6.5H830.6z"/>
			<path class="st2" d="M882.2,881.6c7.9,0,13.1,5.1,13.1,12.7c0,5.8-3,10.2-8.1,11.9l10.2,17.1c0,0-1.5,0.5-4.5,0.5
				c-2.7,0-4.2-0.5-4.2-0.5l-9.7-16.4h-4.7v16.4c0,0-1.2,0.5-3.7,0.5c-2.8,0-3.8-0.5-3.8-0.5v-41.7H882.2z M874.2,900.7h6.9
				c4.1,0,6.3-2.3,6.3-6.4s-2.2-6.4-6.3-6.4h-6.9V900.7z"/>
			<path class="st2" d="M936.7,882.1c1.1-0.3,2.4-0.5,3.8-0.5c1.4,0,2.8,0.2,4,0.5l-13,18.9l14.8,22.2c0,0-1.5,0.5-4.5,0.5
				c-2.7,0-4.3-0.5-4.3-0.5l-12.4-18.4h-2.6v18.4c0,0-1.1,0.5-3.8,0.5c-2.4,0-3.8-0.5-3.8-0.5v-41.2c0,0,1.3-0.5,3.8-0.5
				c2.5,0,3.7,0.5,3.7,0.5v16.8h2.6L936.7,882.1z"/>
			<path class="st2" d="M975.8,881c7.3,0,11.8,1.8,11.8,1.8c0,2.1-0.6,4.4-2,5.9c0,0-3.8-1.3-8.7-1.3c-5.7,0-8.4,1.9-8.4,5.7
				c0,3.7,5.1,4.7,10.2,6.5c5.3,1.9,10.6,4.7,10.6,12.3c0,8.1-5.1,12.6-15.1,12.6c-8,0-13.1-2.6-13.1-2.6c-0.1-2,0.6-4.3,1.8-6
				c0,0,5.6,1.8,11,1.8c5.5,0,7.7-1.9,7.7-5.7c0-3.2-2.6-4.6-6.1-5.9c-6-2.2-14.4-3.6-14.4-12.7C961,886,965.8,881,975.8,881z"/>
			<path class="st2" d="M1031.9,882.1c0,0,1.2-0.5,3.7-0.5c2.5,0,3.8,0.5,3.8,0.5v41.2c0,0-1.3,0.5-3.8,0.5c-2.7,0-3.8-0.5-3.8-0.5
				V882.1z"/>
			<path class="st2" d="M1073.3,881c7.3,0,11.8,1.8,11.8,1.8c0,2.1-0.6,4.4-2,5.9c0,0-3.8-1.3-8.7-1.3c-5.7,0-8.4,1.9-8.4,5.7
				c0,3.7,5.1,4.7,10.2,6.5c5.3,1.9,10.6,4.7,10.6,12.3c0,8.1-5.1,12.6-15.1,12.6c-8,0-13.1-2.6-13.1-2.6c-0.1-2,0.6-4.3,1.8-6
				c0,0,5.6,1.8,11,1.8c5.5,0,7.7-1.9,7.7-5.7c0-3.2-2.6-4.6-6.1-5.9c-6-2.2-14.4-3.6-14.4-12.7C1058.5,886,1063.3,881,1073.3,881z"
				/>
			<path class="st2" d="M1128.3,882.1c0,0,1.3-0.5,3.8-0.5c2.5,0,3.8,0.5,3.8,0.5v41.2c0,0-1.2,0.5-3.7,0.5c-2.8,0-3.8-0.5-3.8-0.5
				v-17.9h-15.5v17.9c0,0-1.3,0.5-3.8,0.5c-2.7,0-3.8-0.5-3.8-0.5v-41.2c0,0,1.2-0.5,3.7-0.5c2.5,0,3.8,0.5,3.8,0.5v16.8h15.5V882.1
				z"/>
			<path class="st2" d="M1172,881c10.3,0,16.9,6.5,16.9,21.7s-6.4,21.7-16.9,21.7c-10.5,0-16.9-6.5-16.9-21.7
				C1155,887.7,1161.6,881,1172,881z M1172,887.2c-5.4,0-9,3-9,15.5c0,12.4,3.6,15.5,9,15.5c5.5,0,9-3.1,9-15.5
				C1181,890.2,1177.5,887.2,1172,887.2z"/>
			<path class="st2" d="M1224.2,881c6.5,0,10.1,2.1,10.1,2.1c0.2,2.4-0.9,4.1-2.2,5.6c0,0-3.3-1.2-7.1-1.2
				c-6.2,0-10.7,3.2-10.7,15.4c0,12.1,4.5,15.1,10.7,15.1c4.2,0,7.7-1.2,7.7-1.2c1.5,1.3,2.2,3.5,2.2,5.7c0,0-3.9,2.1-10.7,2.1
				c-11.6,0-17.8-7.6-17.8-21.7C1206.5,888.5,1212.6,881,1224.2,881z"/>
			<path class="st2" d="M1274.4,882.1c1.1-0.3,2.4-0.5,3.8-0.5c1.4,0,2.8,0.2,4,0.5l-13,18.9l14.8,22.2c0,0-1.5,0.5-4.5,0.5
				c-2.7,0-4.3-0.5-4.3-0.5l-12.4-18.4h-2.6v18.4c0,0-1.1,0.5-3.8,0.5c-2.4,0-3.8-0.5-3.8-0.5v-41.2c0,0,1.3-0.5,3.8-0.5
				c2.5,0,3.7,0.5,3.7,0.5v16.8h2.6L1274.4,882.1z"/>
			<path class="st2" d="M1324.8,881.6c0.4,0.9,0.6,1.8,0.6,2.8c0,1.1-0.2,2.2-0.6,3.2h-16.7v11.8h13.8c0.4,0.9,0.6,1.9,0.6,2.9
				c0,1.1-0.2,2.1-0.6,3.1h-13.8v12.3h17.3c0.4,0.9,0.6,1.9,0.6,2.9c0,1.1-0.2,2.1-0.6,3.1h-24.8v-42.2H1324.8z"/>
			<path class="st2" d="M1372.6,881.6c2.4,0,4.2,0.5,4.2,0.5l-14.5,24.1v17.1c0,0-1.2,0.5-3.6,0.5c-2.7,0-3.9-0.5-3.9-0.5v-16.9
				l-14.1-24.3c0,0,1.6-0.5,4.6-0.5c2.7,0,4.2,0.5,4.2,0.5l9.6,16.6l9.7-16.6C1368.7,882.1,1370.1,881.6,1372.6,881.6z"/>
			<path class="st2" d="M1446.3,909c0,9.8-6,15.4-15.3,15.4c-9.3,0-15.2-5.7-15.2-15.4v-26.9c0,0,1.2-0.5,3.7-0.5
				c2.5,0,3.8,0.5,3.8,0.5v28.1c0,4.9,2.8,7.9,7.9,7.9c5,0,7.8-2.9,7.8-7.9v-28.1c0,0,1.2-0.5,3.6-0.5c2.5,0,3.8,0.5,3.8,0.5V909z"
				/>
			<path class="st2" d="M1477.5,899.7c-2.2-4.1-3.8-8.6-3.8-8.6h-0.2c0,0,0.5,4.6,0.5,10.7v21.5c0,0-1.1,0.5-3.5,0.5
				c-2.3,0-3.4-0.5-3.4-0.5v-41.2c0,0,1.6-0.5,4.5-0.5c3,0,4.5,0.5,4.5,0.5l12.1,23.4c2.3,4.2,3.9,8.8,3.9,8.8h0.2
				c0,0-0.5-4.9-0.5-10.9v-21.3c0,0,1.1-0.5,3.5-0.5c2.5,0,3.4,0.5,3.4,0.5v41.2c0,0-1.4,0.5-4.4,0.5c-2.9,0-4.6-0.5-4.6-0.5
				L1477.5,899.7z"/>
			<path class="st2" d="M1519.6,882.1c0,0,1.2-0.5,3.7-0.5c2.5,0,3.8,0.5,3.8,0.5v41.2c0,0-1.3,0.5-3.8,0.5c-2.7,0-3.8-0.5-3.8-0.5
				V882.1z"/>
			<path class="st2" d="M1563.2,881c10.3,0,16.9,6.5,16.9,21.7s-6.4,21.7-16.9,21.7c-10.5,0-16.9-6.5-16.9-21.7
				C1546.3,887.7,1552.9,881,1563.2,881z M1563.2,887.2c-5.4,0-9,3-9,15.5c0,12.4,3.6,15.5,9,15.5c5.5,0,9-3.1,9-15.5
				C1572.3,890.2,1568.8,887.2,1563.2,887.2z"/>
			<path class="st2" d="M1610,899.7c-2.2-4.1-3.8-8.6-3.8-8.6h-0.2c0,0,0.5,4.6,0.5,10.7v21.5c0,0-1.1,0.5-3.5,0.5
				c-2.3,0-3.4-0.5-3.4-0.5v-41.2c0,0,1.6-0.5,4.5-0.5c3,0,4.5,0.5,4.5,0.5l12.1,23.4c2.3,4.2,3.9,8.8,3.9,8.8h0.2
				c0,0-0.5-4.9-0.5-10.9v-21.3c0,0,1.1-0.5,3.5-0.5c2.5,0,3.4,0.5,3.4,0.5v41.2c0,0-1.4,0.5-4.4,0.5c-2.9,0-4.6-0.5-4.6-0.5
				L1610,899.7z"/>
		</g>
	</g>
</g>
</svg>
